# xmcd
# Track frame offsets:
# 150
# 11598
# 24696
# 37569
# 49617
# 62490
# 74838
# 86061
# 97584
# 108282
# 120630
# 135828
#
# Disc length: 1983 seconds
# Revision: 0
# Processed by: cddbd v1.5.2PL0 Copyright (c) Steve Scherf et al.
# Submitted via: VisiTrax 2.11.2.271 - For more info visit www.synapsa.com
#
DISCID=8b07bd0c
DTITLE=Snow. Hank - Legends
DYEAR=2010
DGENRE=Country
TTITLE0=( Now and Then There's ) A Fool Such As I
TTITLE1=I'm Moving On
TTITLE2=Golden Rocket. The
TTITLE3=Marriage Vow
TTITLE4=Rhumba Boogie.The
TTITLE5=Bluebird Island (with Anita Carter )
TTITLE6=Music Makin' Mamma From Memphis
TTITLE7=With This Ring I Thee Wed
TTITLE8=Unwanted Sign Upon Your Heart
TTITLE9=Paving The Highway With Tears
TTITLE10=Nobody's Child
TTITLE11=I Wonder Where You Are Tonight
EXTD=
EXTT0=
EXTT1=
EXTT2=
EXTT3=
EXTT4=
EXTT5=
EXTT6=
EXTT7=
EXTT8=
EXTT9=
EXTT10=
EXTT11=
PLAYORDER=
